<?xml version="1.0" encoding="iso-8859-1"?>
<!-- Generator: Adobe Illustrator 19.0.0, SVG Export Plug-In . SVG Version: 6.00 Build 0)  -->
<svg version="1.1" id="Layer_1" xmlns="http://www.w3.org/2000/svg" xmlns:xlink="http://www.w3.org/1999/xlink" x="0px" y="0px"
	 viewBox="0 0 511.998 511.998" style="enable-background:new 0 0 511.998 511.998;" xml:space="preserve">
<path style="fill:#FF9F34;" d="M365.994,391.015l-4.599-46.673c-0.305-3.095-2.295-5.768-5.172-6.949
	c-2.879-1.182-6.171-0.675-8.562,1.315c-3.184,2.65-6.578,3.592-10.682,2.969c-11.611-1.765-26.998-15.869-41.16-37.726
	c-1.224-1.891-3.156-3.209-5.363-3.662c-2.203-0.451-4.499,0-6.37,1.254l-27.216,18.272c-3.831,2.572-4.87,7.752-2.329,11.603
	c4.748,7.193,16.509,30.664,8.534,43.715c-1.865,3.052-1.62,6.961,0.652,9.724c2.271,2.763,6.016,3.795,9.373,2.556
	c0.064-0.024,6.484-2.248,13.865-0.961c9.211,1.603,16.079,8.117,20.409,19.362c0.97,2.518,3.098,4.41,5.707,5.097
	c0.704,0.185,1.42,0.277,2.133,0.277c1.929,0,3.827-0.664,5.348-1.915c5.369-4.413,21.902-14.759,33.781-9.703
	c2.731,1.16,5.87,0.796,8.262-0.959C364.997,396.854,366.285,393.966,365.994,391.015z"/>
<path style="fill:#DA7A27;" d="M354.344,399.568c2.731,1.16,5.87,0.796,8.262-0.959c2.391-1.756,3.679-4.643,3.388-7.595
	l-4.599-46.673c-0.305-3.095-2.295-5.768-5.172-6.949c-2.879-1.182-6.171-0.675-8.562,1.315c-3.184,2.65-6.578,3.592-10.682,2.969
	c-3.396-0.516-7.116-2.096-11.033-4.608l1.458,10.357l7.02,53.686C340.857,398.453,348.218,396.961,354.344,399.568z"/>
<path style="fill:#FF9F34;" d="M201.841,324.344c-1.645-1.584-3.879-2.438-6.156-2.341c-0.205,0.002-20.513,0.662-32.705-9.4
	c-0.856-0.707-2.596-2.605-4.639-7.385c-0.911-2.129-2.659-3.787-4.833-4.584c-2.174-0.797-4.582-0.662-6.652,0.373
	c-0.056,0.028-0.112,0.056-0.167,0.085l-19.997,10.562c-3.55,1.875-5.277,5.999-4.122,9.844c3.533,11.761-5.87,26.076-9.776,30.582
	c-2.475,2.823-2.778,6.946-0.739,10.1c2.037,3.154,5.92,4.571,9.513,3.473c12.735-3.898,22.104,13.783,22.183,13.934
	c1.014,1.987,2.777,3.49,4.9,4.176c2.123,0.687,4.432,0.5,6.417-0.519c24.427-12.531,33.019-3.883,34.026-2.712
	c1.498,2.545,4.096,3.916,6.912,3.916c0.762,0,1.54-0.1,2.315-0.305c3.688-0.972,6.104-4.559,6.104-8.374v-45.373
	C204.426,328.112,203.487,325.927,201.841,324.344z"/>
<path style="fill:#DA7A27;" d="M204.426,330.395c0-2.284-0.94-4.468-2.585-6.052c-1.645-1.584-3.879-2.438-6.156-2.341
	c-0.144,0.001-10.279,0.325-20.519-3.006c0.03,2.834,0.077,5.758,0.149,8.803v40.445c0,2.866,0.138,5.651,0.376,8.371
	c9.003-0.628,12.758,3.169,13.402,3.918c1.498,2.545,4.096,3.916,6.912,3.916c0.762,0,1.54-0.1,2.315-0.305
	c3.688-0.972,6.104-4.559,6.104-8.374v-45.375H204.426z"/>
<path style="fill:#A86B38;" d="M472.803,217.372c-19.078-9.441-40.923-12.125-55.695-13.322
	c-6.063-0.492-18.021-15.065-28.573-27.923c-22.357-27.245-52.975-64.557-98.262-72.81c-29.621-5.398-60.767-2.042-90.072,9.709
	c-27.037,10.841-50.591,28.222-66.324,48.944c-16.444,21.657-53.117,31.223-53.486,31.317c-4.493,1.142-7.211,5.709-6.073,10.204
	c1.12,4.421,5.551,7.116,9.978,6.127l11.52,51.451c-2.145,0.481-4.102,1.792-5.337,3.817c-2.416,3.961-1.164,9.13,2.797,11.547
	c0.884,0.539,21.103,12.737,43.7,15.629c2.963,13.796,7.707,27.226,15.309,33.499c14.931,12.322,36.306,13.255,42.435,13.255
	c0.94,0,1.521-0.022,1.667-0.028c2.646-0.114,5.083-1.468,6.577-3.656c0.346-0.506,4.845-7.146,10.348-17.468
	c8.308,1.069,24.056,2.751,40.862,2.751c10.37,0,21.122-0.661,30.785-2.483c18.168,26.384,37.446,40.727,54.458,40.727
	c2.726,0,5.394-0.369,7.989-1.114c15.763-4.53,26.216-21.371,31.257-50.193c12.273-0.389,18.14-0.366,23.265,2.143
	c5.828,2.854,12.069,6.372,18.106,9.773c9.409,5.301,17.535,9.879,23.228,11.47c5.826,1.629,11.697,2.426,17.421,2.426
	c12.055-0.001,23.44-3.543,32.265-10.326c8.852-6.804,19.341-19.955,19.043-43.97C511.65,251.156,498.098,229.891,472.803,217.372z"
	/>
<path style="fill:#7C4212;" d="M472.803,217.372c-19.078-9.441-40.923-12.125-55.695-13.322
	c-6.063-0.492-18.021-15.065-28.573-27.923c-22.357-27.245-52.975-64.557-98.262-72.81c-14.223-2.592-28.797-3.144-43.35-1.738
	c4.213,0.413,8.406,0.98,12.568,1.738c45.287,8.254,75.905,45.566,98.262,72.81c10.551,12.858,22.51,27.432,28.573,27.923
	c14.771,1.197,36.616,3.88,55.694,13.322c25.296,12.519,38.847,33.784,39.19,61.495c0.297,24.014-10.193,37.166-19.045,43.97
	c-5.008,3.85-10.84,6.652-17.151,8.359c5.249,1.315,10.519,1.968,15.668,1.968c12.055-0.001,23.44-3.543,32.265-10.326
	c8.852-6.804,19.341-19.955,19.043-43.97C511.65,251.156,498.098,229.891,472.803,217.372z"/>
<g>
	<path style="fill:#8C4A14;" d="M175.168,336.425c8.663,2.123,16.281,2.39,19.553,2.39c0.94,0,1.521-0.022,1.667-0.028
		c2.646-0.114,5.083-1.468,6.577-3.656c0.346-0.506,4.845-7.146,10.348-17.468c0.022,0.003,0.049,0.006,0.072,0.009
		c8.161-16.763,18.183-41.727,21.097-67.883c-5.774-24.592-29.213-48.361-29.213-48.361
		C208.575,265.92,177.397,332.911,175.168,336.425z"/>
	<path style="fill:#8C4A14;" d="M372.729,299.098l-0.001,0.039c0.101-0.003,0.193-0.006,0.293-0.009
		C372.925,299.117,372.825,299.108,372.729,299.098z"/>
	<path style="fill:#8C4A14;" d="M373.728,264.379l-12.969,12.953c-5.869,5.861-9.551,13.557-10.432,21.806
		c0,0-9.051,50.327-21.681,57.707c1.645,0.536,3.276,0.955,4.891,1.254c0.902,0.109,1.857,0.212,2.982,0.419h0.001
		c0.484,0.045,0.965,0.081,1.445,0.105c0.486,0.023,0.971,0.038,1.453,0.038c2.726,0,5.394-0.368,7.989-1.114
		c1.477-0.425,2.909-0.958,4.293-1.598c1.384-0.641,2.722-1.39,4.013-2.246c3.012-1.998,5.768-4.582,8.27-7.75
		c1.787-2.263,3.442-4.822,4.966-7.677c0.609-1.142,1.198-2.332,1.766-3.569c1.136-2.474,2.188-5.137,3.155-7.988
		c0.726-2.138,1.403-4.383,2.035-6.734c0.421-1.567,0.82-3.181,1.198-4.841c0.568-2.491,1.088-5.089,1.56-7.79
		C381.311,295.366,373.728,264.379,373.728,264.379z"/>
</g>
<path style="fill:#FFD039;" d="M90.168,195.567c-0.619-0.636-1.336-1.169-2.123-1.582c-1.256-0.657-12.574-6.252-23.173-0.517
	c-6.697,3.622-10.994,10.543-12.807,20.607c-8.095,4.195-26.477,14.32-39.784,26.167c-11.362,10.115-15.38,24.532-9.77,35.058
	c3.592,6.741,11.521,13.405,28.836,13.404c7.201,0,16.026-1.153,26.834-3.931c22.483-5.781,31.959-7.5,35.834-7.996
	c2.76,1.379,6.079,1.138,8.621-0.672c2.978-2.119,4.379-5.533,3.808-8.842C107.573,255.708,109.843,215.762,90.168,195.567z"/>
<path style="fill:#2B2B2B;" d="M114.468,230.446c-5.366,0-9.731-4.357-9.731-9.713s4.365-9.713,9.731-9.713
	c5.365,0,9.73,4.358,9.73,9.713C124.198,226.089,119.833,230.446,114.468,230.446z"/>
<path style="fill:#FF9F34;" d="M2.118,254.469c-2.853,7.183-2.89,14.672,0.392,20.831c3.592,6.741,11.521,13.405,28.836,13.404
	c7.201,0,16.026-1.153,26.834-3.931c22.483-5.781,31.959-7.5,35.834-7.996c2.76,1.379,6.079,1.138,8.621-0.672
	c2.978-2.119,4.379-5.533,3.808-8.842c0.486-4.978,1.179-15.224,0.245-26.888c-11.783,5.173-27.715,10.435-47.938,13.458
	C30.126,258.112,12.187,256.552,2.118,254.469z"/>
<g>
</g>
<g>
</g>
<g>
</g>
<g>
</g>
<g>
</g>
<g>
</g>
<g>
</g>
<g>
</g>
<g>
</g>
<g>
</g>
<g>
</g>
<g>
</g>
<g>
</g>
<g>
</g>
<g>
</g>
</svg>
