<?xml version="1.0" encoding="iso-8859-1"?>
<!-- Generator: Adobe Illustrator 19.0.0, SVG Export Plug-In . SVG Version: 6.00 Build 0)  -->
<svg version="1.1" id="Capa_1" xmlns="http://www.w3.org/2000/svg" xmlns:xlink="http://www.w3.org/1999/xlink" x="0px" y="0px"
	 viewBox="0 0 511.999 511.999" style="enable-background:new 0 0 511.999 511.999;" xml:space="preserve">
<g>
	<path style="fill:#FD6F71;" d="M58.945,209.936c-3.025-9.83-3.424-20.426-0.918-30.688l7.863-32.199
		c2.473-10.143-3.737-20.372-13.88-22.845c-10.143-2.473-20.372,3.737-22.845,13.88l-7.863,32.189
		c-3.824,15.663-3.564,31.801,0.421,46.966l20.783,8.378L58.945,209.936z"/>
	<path style="fill:#FD6F71;" d="M453.055,209.936c3.025-9.83,3.424-20.426,0.918-30.688l-7.863-32.199
		c-2.473-10.143,3.737-20.372,13.881-22.845c10.143-2.473,20.372,3.737,22.845,13.88l7.863,32.189
		c3.824,15.663,3.564,31.801-0.421,46.966l-20.783,8.378L453.055,209.936z"/>
</g>
<g>
	<path style="fill:#E34B4C;" d="M105.316,276.506c0,10.445-8.458,18.903-18.903,18.903c-8.987,0-12.768-4.202-24.001-16.678
		c-4.99-5.541-11.784-13.221-20.177-22.813c-9.872-11.277-16.807-24.563-20.512-38.681c9.679-9.474,24.314-12.584,37.223-7.302
		c2.355,7.68,6.308,14.885,11.741,21.085c19.702,22.51,25.6,28.819,27.329,30.558C102.465,265.046,105.316,270.435,105.316,276.506z
		"/>
	<path style="fill:#E34B4C;" d="M406.684,276.506c0,10.445,8.458,18.903,18.903,18.903c8.987,0,12.768-4.202,24.001-16.678
		c4.99-5.541,11.784-13.221,20.177-22.813c9.872-11.277,16.807-24.563,20.512-38.681c-9.679-9.474-24.314-12.584-37.223-7.302
		c-2.355,7.68-6.308,14.885-11.741,21.085c-19.702,22.51-25.6,28.819-27.329,30.558
		C409.535,265.046,406.684,270.435,406.684,276.506z"/>
</g>
<path style="fill:#FD6F71;" d="M68.202,383.368c-5.466,10.737-4.299,22.965-0.378,34.166c2.247,6.427,5.26,12.519,8.739,18.363
	l0.205,0.346c3.489,5.833,1.577,13.373-4.256,16.861c-5.476,3.263-12.508,1.739-16.213-3.295
	c-5.142-6.945-9.614-14.312-13.221-22.176c-9.063-19.734-10.943-41.413-1.318-61.397c0.583-1.209,1.199-2.387,1.869-3.543h19.697
	L68.202,383.368z"/>
<path style="fill:#E34B4C;" d="M122.135,339.307c0,0-7.475,5.433-18.698,13.599c-11.655,8.458-26.053,15.37-33.863,27.998
	c-0.508,0.81-0.961,1.631-1.372,2.463c-11.18-2.442-20.329-10.294-24.574-20.675c8.761-15.36,24.185-26.561,37.222-38.022
	c10.413-9.159,17.369-15.263,17.369-15.263c7.95-6.989,20.059-6.211,27.047,1.739C132.58,319.465,131.046,332.794,122.135,339.307z"
	/>
<path style="fill:#FD6F71;" d="M145.254,419.399c-2.488,11.788,1.816,23.292,8.513,33.09c3.839,5.623,8.333,10.722,13.21,15.461
	l0.288,0.28c4.885,4.725,4.998,12.503,0.272,17.388c-4.44,4.573-11.627,4.929-16.513,1.032c-6.77-5.37-13.003-11.323-18.53-17.978
	c-13.88-16.701-21.329-37.147-17.228-58.945c0.249-1.32,0.538-2.617,0.884-3.906l19.02-5.119L145.254,419.399z"/>
<path style="fill:#E34B4C;" d="M185.885,362.836c0,0-5.806,7.189-14.521,17.991c-9.056,11.196-21.164,21.613-25.424,35.836
	c-0.279,0.914-0.505,1.824-0.685,2.735c-11.43,0.548-22.305-4.657-29.103-13.578c4.468-17.109,16.452-31.934,26.063-46.389
	c7.675-11.551,12.806-19.252,12.806-19.252c5.861-8.814,17.755-11.21,26.57-5.35C190.814,340.961,192.797,354.231,185.885,362.836z"
	/>
<path style="fill:#FD6F71;" d="M443.798,383.368c5.466,10.737,4.299,22.965,0.378,34.166c-2.247,6.427-5.26,12.519-8.739,18.363
	l-0.205,0.346c-3.489,5.833-1.577,13.373,4.256,16.861c5.476,3.263,12.508,1.739,16.213-3.295
	c5.142-6.945,9.614-14.312,13.221-22.176c9.063-19.734,10.943-41.413,1.318-61.397c-0.583-1.209-1.199-2.387-1.869-3.543h-19.697
	L443.798,383.368z"/>
<path style="fill:#E34B4C;" d="M389.865,339.307c0,0,7.475,5.433,18.698,13.599c11.655,8.458,26.053,15.37,33.863,27.998
	c0.508,0.81,0.961,1.631,1.372,2.463c11.18-2.442,20.329-10.294,24.574-20.675c-8.761-15.36-24.185-26.561-37.222-38.022
	c-10.413-9.159-17.369-15.263-17.369-15.263c-7.95-6.989-20.059-6.211-27.047,1.739C379.42,319.465,380.954,332.794,389.865,339.307
	z"/>
<path style="fill:#FD6F71;" d="M366.745,419.399c2.488,11.788-1.816,23.292-8.513,33.09c-3.839,5.623-8.333,10.722-13.21,15.461
	l-0.288,0.28c-4.885,4.725-4.998,12.503-0.272,17.388c4.44,4.573,11.627,4.929,16.513,1.032c6.77-5.37,13.003-11.323,18.53-17.978
	c13.88-16.701,21.329-37.147,17.228-58.945c-0.249-1.32-0.538-2.617-0.884-3.906l-19.02-5.119L366.745,419.399z"/>
<path style="fill:#E34B4C;" d="M326.115,362.836c0,0,5.806,7.189,14.521,17.991c9.056,11.196,21.164,21.613,25.424,35.836
	c0.279,0.914,0.505,1.824,0.685,2.735c11.43,0.548,22.306-4.657,29.103-13.578c-4.468-17.109-16.452-31.934-26.063-46.389
	c-7.675-11.551-12.806-19.252-12.806-19.252c-5.861-8.814-17.755-11.21-26.57-5.35C321.186,340.961,319.203,354.231,326.115,362.836
	z"/>
<path style="fill:#FD6F71;" d="M256,353.712c25.03,0,49.686,3.016,73.864,9.837c13.574,3.829,27.273,9.516,41.522,9.409
	c43.906-0.33,76.447-39.159,73.826-84.135C439.353,188.24,342.339,127.46,256,127.46c-86.338,0-183.353,60.781-189.212,161.363
	c-2.62,44.976,29.921,83.805,73.826,84.135c14.248,0.107,27.948-5.579,41.521-9.409C206.314,356.729,230.97,353.712,256,353.712z"/>
<g>
	<path style="fill:#3A484A;" d="M168.908,324.521c-4.267,0-7.726-3.459-7.726-7.726v-15.762c0-4.267,3.459-7.726,7.726-7.726
		s7.726,3.459,7.726,7.726v15.762C176.635,321.062,173.176,324.521,168.908,324.521z"/>
	<path style="fill:#3A484A;" d="M343.091,324.521c-4.267,0-7.726-3.459-7.726-7.726v-15.762c0-4.267,3.459-7.726,7.726-7.726
		c4.267,0,7.726,3.459,7.726,7.726v15.762C350.818,321.062,347.359,324.521,343.091,324.521z"/>
	<path style="fill:#3A484A;" d="M256,332.934c-10.607,0-20.561-4.429-27.312-12.151c-2.808-3.213-2.481-8.094,0.732-10.902
		c3.213-2.808,8.094-2.481,10.902,0.732c3.816,4.365,9.529,6.868,15.677,6.868c6.148,0,11.863-2.503,15.678-6.868
		c2.808-3.214,7.689-3.541,10.902-0.732s3.541,7.689,0.732,10.902C276.562,328.506,266.607,332.934,256,332.934z"/>
</g>
<g>
	<path style="fill:#E34B4C;" d="M132.598,85.628c-0.38-4.433-6.053-6.089-8.674-2.494c-7.467,10.241-18.569,17.994-27.536,23.089
		c-7.124,4.048-15.865-1.56-15.148-9.723c2.337-26.588,17.428-46.174,24.413-53.932c1.906-2.116,1.558-5.408-0.73-7.105
		C94.064,27.41,80.782,22.667,66.43,22.667C29.742,22.667,0,53.617,0,91.798c0,38.18,29.742,69.13,66.43,69.13
		s66.43-30.951,66.43-69.13C132.86,89.718,132.772,87.661,132.598,85.628z"/>
	<path style="fill:#E34B4C;" d="M379.402,85.628c0.38-4.433,6.053-6.089,8.674-2.494c7.467,10.241,18.569,17.994,27.536,23.089
		c7.124,4.048,15.865-1.56,15.148-9.723c-2.337-26.588-17.428-46.174-24.413-53.932c-1.906-2.116-1.558-5.408,0.729-7.105
		c10.859-8.054,24.141-12.797,38.493-12.797c36.689,0,66.43,30.951,66.43,69.13s-29.742,69.13-66.43,69.13
		s-66.43-30.951-66.43-69.13C379.14,89.718,379.228,87.661,379.402,85.628z"/>
</g>
<g>
</g>
<g>
</g>
<g>
</g>
<g>
</g>
<g>
</g>
<g>
</g>
<g>
</g>
<g>
</g>
<g>
</g>
<g>
</g>
<g>
</g>
<g>
</g>
<g>
</g>
<g>
</g>
<g>
</g>
</svg>
